<svg width="48" height="48" viewBox="0 0 48 48" fill="none" xmlns="http://www.w3.org/2000/svg">
<g clip-path="url(#clip0_876_1678)">
<path d="M44.9999 24.9004H2.99994C2.09994 24.9004 1.39994 25.7004 1.59994 26.6004L3.89994 43.2004L4.39994 47.0004H11.4999L11.1999 43.2004H15.1999L15.3999 47.0004H32.7999L32.9999 43.2004H36.9999L36.5999 47.0004H43.6999L44.1999 43.2004L46.4999 26.6004C46.4999 25.7004 45.7999 24.9004 44.9999 24.9004Z" fill="#D23915"/>
<path d="M1.99994 29.7998H45.9999L46.3999 26.4998C46.4999 25.5998 45.7999 24.7998 44.9999 24.7998H2.99994C2.09994 24.7998 1.39994 25.5998 1.59994 26.4998L1.99994 29.7998Z" fill="#D23915"/>
<path d="M43.5999 48.0004H36.5C36.2 48.0004 35.9999 47.9004 35.7999 47.7004C35.5999 47.5004 35.5 47.2004 35.5 46.9004L35.7 44.2004H33.7999L33.5999 47.1004C33.5999 47.6004 33.0999 48.0004 32.5999 48.0004H15.3C14.8 48.0004 14.3 47.6004 14.3 47.1004L14.1 44.2004H12.2L12.4 46.7004V47.0004C12.4 47.6004 12 48.0004 11.4 48.0004H4.39995C3.89995 48.0004 3.49995 47.6004 3.39995 47.1004L0.599951 26.7004C0.499951 26.0004 0.699951 25.3004 1.19995 24.7004C1.69995 24.2004 2.29995 23.9004 3.09995 23.9004H45C45.7 23.9004 46.4 24.2004 46.9 24.7004C47.4 25.2004 47.6 25.9004 47.5 26.7004L44.7 47.2004C44.5 47.6004 44.0999 48.0004 43.5999 48.0004ZM37.7 46.0004H42.7999L45.5 26.4004C45.5 26.2004 45.4 26.1004 45.4 26.0004C45.3 25.9004 45.1999 25.8004 45.0999 25.8004H2.99995C2.79995 25.8004 2.69995 25.9004 2.69995 26.0004C2.59995 26.1004 2.59995 26.2004 2.59995 26.4004L5.29995 46.0004H10.4L10.2 43.3004C10.2 43.0004 10.3 42.7004 10.5 42.5004C10.7 42.3004 11 42.2004 11.2 42.2004H15.2C15.7 42.2004 16.2 42.6004 16.2 43.1004L16.4 46.0004H31.9L32.0999 43.1004C32.0999 42.6004 32.5999 42.2004 33.0999 42.2004H37.0999C37.3999 42.2004 37.5999 42.3004 37.7999 42.5004C37.9999 42.7004 38.0999 43.0004 38.0999 43.3004L37.7 46.0004Z" fill="#E75912"/>
<path d="M34.9999 43.7C34.5999 43.7 34.1999 43.4 33.9999 43L25.6999 14.4C25.5999 13.9 25.7999 13.4 26.2999 13.2C28.3999 12.3 29.7999 10.2 29.7999 7.8C29.7999 4.6 27.1999 2 23.9999 2C20.7999 2 18.1999 4.6 18.1999 7.8C18.1999 10.1 19.5999 12.2 21.6999 13.2C22.1999 13.4 22.3999 13.9 22.2999 14.4L13.8999 43C13.6999 43.5 13.1999 43.8 12.6999 43.7C12.1999 43.5 11.8999 43 11.9999 42.5L20.0999 14.7C17.6999 13.3 16.1999 10.7 16.1999 7.9C16.1999 3.5 19.6999 0 23.9999 0C28.2999 0 31.7999 3.5 31.7999 7.8C31.7999 10.6 30.2999 13.2 27.8999 14.6L35.9999 42.4C36.1999 42.9 35.8999 43.5 35.2999 43.6C35.1999 43.7 35.0999 43.7 34.9999 43.7Z" fill="#E75912" fill-opacity="0.97"/>
</g>
<defs>
<clipPath id="clip0_876_1678">
<rect width="48" height="48" fill="white"/>
</clipPath>
</defs>
</svg>
