<svg width="49" height="49" viewBox="0 0 49 49" fill="none" xmlns="http://www.w3.org/2000/svg">
<g clip-path="url(#clip0_917_2315)">
<path d="M45.4026 25.6807H3.40262C2.50262 25.6807 1.80262 26.4807 2.00262 27.3807L4.30262 43.9807L4.80262 47.7807H11.9026L11.6026 43.9807H15.6026L15.8026 47.7807H33.2026L33.4026 43.9807H37.4026L37.0026 47.7807H44.1026L44.6026 43.9807L46.9026 27.3807C46.9026 26.4807 46.2026 25.6807 45.4026 25.6807Z" fill="#9C27B0"/>
<path d="M2.40262 30.5801H46.4026L46.8026 27.2801C46.9026 26.3801 46.2026 25.5801 45.4026 25.5801H3.40262C2.50262 25.5801 1.80262 26.3801 2.00262 27.2801L2.40262 30.5801Z" fill="#B477C2"/>
<path d="M44.0025 48.7807H36.9025C36.6025 48.7807 36.4025 48.6807 36.2025 48.4807C36.0025 48.2807 35.9025 47.9807 35.9025 47.6807L36.1025 44.9807H34.2025L34.0025 47.8807C34.0025 48.3807 33.5025 48.7807 33.0025 48.7807H15.7025C15.2025 48.7807 14.7025 48.3807 14.7025 47.8807L14.5025 44.9807H12.6025L12.8025 47.4807V47.7807C12.8025 48.3807 12.4025 48.7807 11.8025 48.7807H4.80254C4.30254 48.7807 3.90254 48.3807 3.80254 47.8807L1.00254 27.4807C0.902539 26.7807 1.10254 26.0807 1.60254 25.4807C2.10254 24.9807 2.70254 24.6807 3.50254 24.6807H45.4025C46.1025 24.6807 46.8025 24.9807 47.3025 25.4807C47.8025 25.9807 48.0025 26.6807 47.9025 27.4807L45.1025 47.9807C44.9025 48.3807 44.5025 48.7807 44.0025 48.7807ZM38.1025 46.7807H43.2025L45.9025 27.1807C45.9025 26.9807 45.8025 26.8807 45.8025 26.7807C45.7025 26.6807 45.6025 26.5807 45.5025 26.5807H3.40254C3.20254 26.5807 3.10254 26.6807 3.10254 26.7807C3.00254 26.8807 3.00254 26.9807 3.00254 27.1807L5.70254 46.7807H10.8025L10.6025 44.0807C10.6025 43.7807 10.7025 43.4807 10.9025 43.2807C11.1025 43.0807 11.4025 42.9807 11.6025 42.9807H15.6025C16.1025 42.9807 16.6025 43.3807 16.6025 43.8807L16.8025 46.7807H32.3025L32.5025 43.8807C32.5025 43.3807 33.0025 42.9807 33.5025 42.9807H37.5025C37.8025 42.9807 38.0025 43.0807 38.2025 43.2807C38.4025 43.4807 38.5025 43.7807 38.5025 44.0807L38.1025 46.7807Z" fill="#8C239D"/>
<path d="M35.4026 44.4803C35.0026 44.4803 34.6026 44.1803 34.4026 43.7803L26.1026 15.1803C26.0026 14.6803 26.2026 14.1803 26.7026 13.9803C28.8026 13.0803 30.2026 10.9803 30.2026 8.58027C30.2026 5.38027 27.6026 2.78027 24.4026 2.78027C21.2026 2.78027 18.6026 5.38027 18.6026 8.58027C18.6026 10.8803 20.0026 12.9803 22.1026 13.9803C22.6026 14.1803 22.8026 14.6803 22.7026 15.1803L14.3026 43.7803C14.1026 44.2803 13.6026 44.5803 13.1026 44.4803C12.6026 44.2803 12.3026 43.7803 12.4026 43.2803L20.5026 15.4803C18.1026 14.0803 16.6026 11.4803 16.6026 8.68027C16.6026 4.28027 20.1026 0.780273 24.4026 0.780273C28.7026 0.780273 32.2026 4.28027 32.2026 8.58027C32.2026 11.3803 30.7026 13.9803 28.3026 15.3803L36.4026 43.1803C36.6026 43.6803 36.3026 44.2803 35.7026 44.3803C35.6026 44.4803 35.5026 44.4803 35.4026 44.4803Z" fill="#8C239D"/>
</g>
<defs>
<clipPath id="clip0_917_2315">
<rect width="48" height="48" fill="white" transform="translate(0.402588 0.780273)"/>
</clipPath>
</defs>
</svg>
